HIERARCHY
ROOT hip
{
  OFFSET 0 0 0
  CHANNELS 6 Xposition Yposition Zposition Zrotation Yrotation Xrotation
  JOINT abdomen
  {
    OFFSET 0 20.6881 -0.73152
    CHANNELS 3 Zrotation Xrotation Yrotation
    JOINT chest
    {
      OFFSET 0 11.7043 -0.48768
      CHANNELS 3 Zrotation Xrotation Yrotation
      JOINT neck
      {
        OFFSET 0 22.1894 -2.19456
        CHANNELS 3 Zrotation Xrotation Yrotation
        JOINT head
        {
          OFFSET -0.24384 7.07133 1.2192
          CHANNELS 3 Zrotation Xrotation Yrotation
          JOINT leftEye
          {
            OFFSET 4.14528 8.04674 8.04672
            CHANNELS 3 Zrotation Xrotation Yrotation
            End Site
            {
              OFFSET 1 0 0
            }
          }
          JOINT rightEye
          {
            OFFSET -3.6576 8.04674 8.04672
            CHANNELS 3 Zrotation Xrotation Yrotation
            End Site
            {
              OFFSET 1 0 0
            }
          }
        }
      }
      JOINT rCollar
      {
        OFFSET -2.68224 19.2634 -4.8768
        CHANNELS 3 Zrotation Xrotation Yrotation
        JOINT rShldr
        {
          OFFSET -8.77824 -1.95073 1.46304
          CHANNELS 3 Zrotation Xrotation Yrotation
          JOINT rForeArm
          {
            OFFSET -28.1742 -1.7115 0.48768
            CHANNELS 3 Zrotation Xrotation Yrotation
            JOINT rHand
            {
              OFFSET -22.5879 0.773209 7.07136
              CHANNELS 3 Zrotation Xrotation Yrotation
              JOINT rThumb1
              {
                OFFSET -1.2192 -0.487915 3.41376
                CHANNELS 3 Zrotation Xrotation Yrotation
                JOINT rThumb2
                {
                  OFFSET -3.37035 -0.52449 3.41376
                  CHANNELS 3 Zrotation Xrotation Yrotation
                  End Site
                  {
                    OFFSET -1.78271 -1.18214 1.43049
                  }
                }
              }
              JOINT rIndex1
              {
                OFFSET -7.75947 0.938293 5.60832
                CHANNELS 3 Zrotation Xrotation Yrotation
                JOINT rIndex2
                {
                  OFFSET -2.54057 -0.884171 1.56538
                  CHANNELS 3 Zrotation Xrotation Yrotation
                  End Site
                  {
                    OFFSET -1.62519 -0.234802 1.16502
                  }
                }
              }
              JOINT rMid1
              {
                OFFSET -8.24714 1.18213 3.41376
                CHANNELS 3 Zrotation Xrotation Yrotation
                JOINT rMid2
                {
                  OFFSET -3.10165 -0.590103 1.0647
                  CHANNELS 3 Zrotation Xrotation Yrotation
                  End Site
                  {
                    OFFSET -2.48547 -0.328903 0.83742
                  }
                }
              }
              JOINT rRing1
              {
                OFFSET -8.82822 0.546677 1.51678
                CHANNELS 3 Zrotation Xrotation Yrotation
                JOINT rRing2
                {
                  OFFSET -2.60934 -0.819778 -0.0198488
                  CHANNELS 3 Zrotation Xrotation Yrotation
                  End Site
                  {
                    OFFSET -2.33842 -0.294052 0.168128
                  }
                }
              }
              JOINT rPinky1
              {
                OFFSET -8.27202 -0.0477905 -0.4584
                CHANNELS 3 Zrotation Xrotation Yrotation
                JOINT rPinky2
                {
                  OFFSET -1.82734 -0.647385 -0.700984
                  CHANNELS 3 Zrotation Xrotation Yrotation
                  End Site
                  {
                    OFFSET -1.69225 -0.51767 -0.607171
                  }
                }
              }
            }
          }
        }
      }
      JOINT lCollar
      {
        OFFSET 2.68224 19.2634 -4.8768
        CHANNELS 3 Zrotation Xrotation Yrotation
        JOINT lShldr
        {
          OFFSET 8.77824 -1.95073 1.46304
          CHANNELS 3 Zrotation Xrotation Yrotation
          JOINT lForeArm
          {
            OFFSET 28.1742 -1.7115 0.48768
            CHANNELS 3 Zrotation Xrotation Yrotation
            JOINT lHand
            {
              OFFSET 22.5879 0.773209 7.07136
              CHANNELS 3 Zrotation Xrotation Yrotation
              JOINT lThumb1
              {
                OFFSET 1.2192 -0.487915 3.41376
                CHANNELS 3 Zrotation Xrotation Yrotation
                JOINT lThumb2
                {
                  OFFSET 3.37035 -0.52449 3.41376
                  CHANNELS 3 Zrotation Xrotation Yrotation
                  End Site
                  {
                    OFFSET 1.78271 -1.18214 1.43049
                  }
                }
              }
              JOINT lIndex1
              {
                OFFSET 7.75947 0.938293 5.60832
                CHANNELS 3 Zrotation Xrotation Yrotation
                JOINT lIndex2
                {
                  OFFSET 2.54057 -0.884171 1.56538
                  CHANNELS 3 Zrotation Xrotation Yrotation
                  End Site
                  {
                    OFFSET 1.62519 -0.234802 1.16502
                  }
                }
              }
              JOINT lMid1
              {
                OFFSET 8.24714 1.18213 3.41376
                CHANNELS 3 Zrotation Xrotation Yrotation
                JOINT lMid2
                {
                  OFFSET 3.10165 -0.590103 1.0647
                  CHANNELS 3 Zrotation Xrotation Yrotation
                  End Site
                  {
                    OFFSET 2.48547 -0.328903 0.83742
                  }
                }
              }
              JOINT lRing1
              {
                OFFSET 8.82822 0.546677 1.51678
                CHANNELS 3 Zrotation Xrotation Yrotation
                JOINT lRing2
                {
                  OFFSET 2.60934 -0.819778 -0.0198488
                  CHANNELS 3 Zrotation Xrotation Yrotation
                  End Site
                  {
                    OFFSET 2.33842 -0.294052 0.168128
                  }
                }
              }
              JOINT lPinky1
              {
                OFFSET 8.27202 -0.0477905 -0.4584
                CHANNELS 3 Zrotation Xrotation Yrotation
                JOINT lPinky2
                {
                  OFFSET 1.82734 -0.647385 -0.700984
                  CHANNELS 3 Zrotation Xrotation Yrotation
                  End Site
                  {
                    OFFSET 1.69225 -0.51767 -0.607171
                  }
                }
              }
            }
          }
        }
      }
    }
  }
  JOINT rButtock
  {
    OFFSET -8.77824 4.35084 1.2192
    CHANNELS 3 Zrotation Xrotation Yrotation
    JOINT rThigh
    {
      OFFSET 0 -1.70687 -2.19456
      CHANNELS 3 Zrotation Xrotation Yrotation
      JOINT rShin
      {
        OFFSET 0 -36.8199 0.73152
        CHANNELS 3 Zrotation Xrotation Yrotation
        JOINT rFoot
        {
          OFFSET 0.73152 -45.1104 -5.12064
          CHANNELS 3 Zrotation Xrotation Yrotation
          End Site
          {
            OFFSET -1.1221 -3.69964 12.103
          }
        }
      }
    }
  }
  JOINT lButtock
  {
    OFFSET 8.77824 4.35084 1.2192
    CHANNELS 3 Zrotation Xrotation Yrotation
    JOINT lThigh
    {
      OFFSET 0 -1.70687 -2.19456
      CHANNELS 3 Zrotation Xrotation Yrotation
      JOINT lShin
      {
        OFFSET 0 -36.8199 0.73152
        CHANNELS 3 Zrotation Xrotation Yrotation
        JOINT lFoot
        {
          OFFSET -0.73152 -45.1104 -5.12064
          CHANNELS 3 Zrotation Xrotation Yrotation
          End Site
          {
            OFFSET 1.1221 -3.69964 12.103
          }
        }
      }
    }
  }
}
MOTION
Frames:	4
Frame Time:	0.03333
-0.4201304167509079 -3.885556012392044 -0.9426061995327473 5.819896697998047 21.205862045288086 7.428959846496582 -11.134869575500488 9.209814071655273 -0.05077371373772621 5.425127983093262 -8.43461799621582 -0.13708260655403137 -7.801790714263916 16.67582130432129 -9.430275917053223 12.213699340820312 -26.387290954589844 -15.653146743774414 -0.08002302050590515 0.2436600774526596 -0.15564695000648499 0.10285148024559021 0.24169529974460602 0.12243811041116714 -0.20122618973255157 -0.05095497518777847 0.12146870791912079 46.692115783691406 29.109342575073242 10.943753242492676 -27.433502197265625 -28.806550979614258 65.75566864013672 -0.07635818421840668 -2.0871546268463135 -0.3666625916957855 -0.13361872732639313 0.0037717591039836407 -0.09930441528558731 -0.030826255679130554 0.04251379147171974 0.06689604371786118 -0.10501386225223541 -0.00643869349732995 -0.13488323986530304 7.758163928985596 5.4016337394714355 0.7161766290664673 -0.09439661353826523 -0.3185138404369354 -0.17479470372200012 3.080944061279297 1.3466370105743408 0.057350385934114456 -0.07835980504751205 -0.1176929697394371 -0.05228245258331299 10.388260841369629 0.7913089394569397 0.13061290979385376 0.16726113855838776 0.28010988235473633 -0.10146909952163696 2.1498842239379883 -0.6467147469520569 -0.24059081077575684 -0.10549269616603851 0.1175319030880928 0.3307162821292877 -60.490352630615234 53.948265075683594 -17.484859466552734 27.867658615112305 -39.772178649902344 -84.08243560791016 1.2908029556274414 -29.615596771240234 4.281684875488281 0.09822147339582443 -0.06748426705598831 -0.2750336527824402 0.1421205699443817 0.179181769490242 -0.019829556345939636 -0.26534783840179443 -0.09771768003702164 0.21105854213237762 -7.541046619415283 5.434925556182861 -0.7465283274650574 0.15824101865291595 -0.2924376428127289 0.03678927570581436 -2.7675468921661377 0.8065699934959412 -0.17129381000995636 -0.23604655265808105 -0.03538168966770172 0.016229312866926193 -10.241181373596191 0.5435563921928406 -0.1611456274986267 0.13053280115127563 -0.10725665092468262 -0.03687974810600281 -2.102395534515381 -0.8064246773719788 0.09945674240589142 0.15026599168777466 -0.35962098836898804 0.13105995953083038 -48.229896545410156 -57.717403411865234 -44.96609878540039 -1.8291823863983154 71.98528289794922 2.219529151916504 1.6154576539993286 -4.9910054206848145 8.707778930664062 0.4472597539424896 -0.17550209164619446 -0.20346345007419586 10.092373847961426 4.766441345214844 4.101377487182617 -0.030051860958337784 42.03069305419922 -2.987729549407959 16.129940032958984 -22.511327743530273 37.90574645996094
-0.42779725044965744 -3.900325298309326 -0.9554482996463776 5.7981181144714355 20.91600227355957 7.257108688354492 -11.238550186157227 9.371855735778809 -0.1909528523683548 5.5139923095703125 -8.43856430053711 -0.25956735014915466 -7.801482677459717 16.48019027709961 -9.483160972595215 12.062385559082031 -26.405500411987305 -15.942784309387207 -0.11890272796154022 0.05789663642644882 -0.12983635067939758 0.10386140644550323 0.32227081060409546 0.05253034457564354 -0.19289924204349518 0.025203030556440353 0.16098743677139282 47.03129959106445 28.98591423034668 11.224994659423828 -27.312564849853516 -28.12848472595215 64.60742950439453 -0.09774776548147202 -1.7287667989730835 -0.3106398284435272 -0.04769577458500862 -0.08633264899253845 -0.22598311305046082 -0.07765103876590729 0.13479916751384735 0.08606340736150742 -0.20020242035388947 0.14088882505893707 -0.15712851285934448 7.676445007324219 5.373563766479492 0.7884887456893921 0.04480818659067154 -0.3634653091430664 -0.1340928077697754 2.979546308517456 1.2751845121383667 0.07832205295562744 -0.10508287698030472 -0.15153458714485168 -0.10068375617265701 10.419353485107422 0.7431640625 0.1517336666584015 0.20001180469989777 0.2710387706756592 -0.02384050376713276 2.041980028152466 -0.5545185804367065 -0.2545902729034424 -0.13176891207695007 0.12430638074874878 0.11682765930891037 -60.496437072753906 53.87344741821289 -17.632009506225586 27.990249633789062 -39.414634704589844 -83.08061218261719 1.2542892694473267 -29.18266487121582 4.2902116775512695 0.08299374580383301 0.014518886804580688 -0.30613231658935547 0.15431815385818481 0.1929181069135666 -0.008247334510087967 -0.2814251780509949 -0.1393657773733139 0.22327165305614471 -7.534133434295654 5.422697067260742 -0.8109467625617981 0.08056087046861649 -0.44627198576927185 0.032481156289577484 -2.8383753299713135 0.7835493683815002 -0.17802149057388306 -0.16857188940048218 -0.09891249239444733 -0.06491681933403015 -10.32614803314209 0.5265387892723083 -0.1327945590019226 0.192789226770401 -0.1604066789150238 -0.08651742339134216 -2.1278717517852783 -0.8616668581962585 0.09070733189582825 0.1642855554819107 -0.3233218193054199 0.2178412824869156 -48.795833587646484 -57.84638595581055 -45.190635681152344 -2.0273356437683105 72.72893524169922 2.4490103721618652 1.5285437107086182 -4.968583583831787 8.533740997314453 0.47294798493385315 -0.16759435832500458 -0.20987141132354736 9.863964080810547 4.605295181274414 3.938549757003784 -0.029928363859653473 42.23930740356445 -3.1388399600982666 15.778965950012207 -22.086368560791016 37.644771575927734
-0.4281574860215187 -3.875456005334854 -0.9603734128177166 5.253933906555176 19.83823585510254 6.383090972900391 -11.218793869018555 9.732059478759766 -0.2295391708612442 5.1919355392456055 -8.522812843322754 -0.1708318591117859 -7.817100524902344 16.58049201965332 -9.105979919433594 12.194839477539062 -25.585987091064453 -15.338752746582031 -0.08417035639286041 0.21644198894500732 -0.02939445711672306 0.21211887896060944 0.48692086338996887 0.028663767501711845 -0.0004342207685112953 0.1515202522277832 0.1898631900548935 46.59705352783203 29.89230728149414 10.819463729858398 -27.856605529785156 -29.987009048461914 67.59081268310547 -0.21995306015014648 -3.986389636993408 -0.5114045739173889 -0.13513889908790588 -0.01713317073881626 -0.36586418747901917 0.04720671474933624 -0.013879120349884033 -0.07504850625991821 -0.16010211408138275 0.0971880555152893 -0.07305392622947693 7.764977931976318 5.197481155395508 0.7836087346076965 -0.06083935126662254 -0.23130682110786438 -0.0656290128827095 2.9474847316741943 1.3992276191711426 0.021643688902258873 -0.07041805982589722 -0.23422281444072723 -0.04096335917711258 10.417278289794922 1.0311611890792847 0.12319719791412354 0.14905747771263123 0.35396450757980347 0.00694455299526453 2.230930805206299 -0.4252839982509613 -0.13576798141002655 -0.19375908374786377 0.0376962274312973 0.24142150580883026 -59.32144546508789 53.58922576904297 -18.592243194580078 27.92881965637207 -39.893375396728516 -83.91886138916016 1.2578085660934448 -29.30398941040039 4.340811252593994 0.06424766033887863 0.019818414002656937 -0.13710492849349976 0.023457320407032967 0.34539496898651123 -0.00830275658518076 -0.1817633956670761 -0.27850398421287537 0.07194216549396515 -7.408932209014893 5.261195182800293 -0.786906898021698 -0.08663041889667511 -0.38959214091300964 0.15273042023181915 -2.8547937870025635 0.7960203886032104 -0.3201705515384674 -0.08546973764896393 -0.12483435869216919 0.04170779883861542 -10.247908592224121 0.5666810274124146 0.046027567237615585 0.34017983078956604 -0.14331993460655212 -0.024859873577952385 -2.0893149375915527 -0.949665367603302 0.06663535535335541 0.07132312655448914 -0.4068978726863861 0.26320981979370117 -50.759727478027344 -58.01479721069336 -47.036617279052734 -2.557310104370117 74.07527923583984 3.14513897895813 2.422744035720825 -4.823146343231201 10.619819641113281 0.38343915343284607 0.047502100467681885 -0.44094231724739075 10.557061195373535 3.6671142578125 4.719309329986572 -0.038470588624477386 44.95465087890625 -3.0861754417419434 16.595556259155273 -23.2659854888916 37.450626373291016
-0.42574014514684677 -3.8486316800117493 -0.9692351333796978 4.4041643142700195 19.68735122680664 5.720425605773926 -11.31121826171875 9.984057426452637 -0.007837650366127491 5.181406497955322 -8.518095970153809 -0.06571302562952042 -7.6576619148254395 16.92430877685547 -9.217753410339355 12.78261661529541 -25.202421188354492 -15.63528060913086 -0.22576119005680084 0.1940736472606659 -0.12488037347793579 0.1426105946302414 0.4267616271972656 -0.1257520169019699 0.012005988508462906 0.12165169417858124 0.2063172608613968 45.8984489440918 29.168420791625977 11.140430450439453 -28.182472229003906 -30.763273239135742 68.59562683105469 -0.187791109085083 -4.875492095947266 -0.6419318318367004 -0.015163401141762733 -0.0875352993607521 -0.34378936886787415 0.12234274297952652 -0.05452674627304077 -0.126369908452034 -0.1953722983598709 -0.0683719590306282 -0.044062692672014236 7.822979927062988 5.257312774658203 0.7590513825416565 -0.09142135828733444 -0.15456397831439972 -0.04341823607683182 3.0253515243530273 1.3774230480194092 -0.006865596864372492 -0.11399257928133011 -0.21975328028202057 -0.03333015367388725 10.335972785949707 0.9579628705978394 0.02798190899193287 -0.012517188675701618 0.18954548239707947 -0.006040198728442192 2.1879186630249023 -0.3997396230697632 -0.2576086223125458 -0.1718774288892746 0.026435215026140213 0.2773424983024597 -60.367549896240234 54.399478912353516 -17.363468170166016 28.0959415435791 -39.71491241455078 -83.43011474609375 1.2072250843048096 -28.935340881347656 4.357612133026123 0.10129320621490479 0.027468256652355194 -0.09719197452068329 0.011648982763290405 0.3520617187023163 -0.034007295966148376 -0.10086562484502792 -0.21156316995620728 0.07959838956594467 -7.501033782958984 5.401424884796143 -0.7611942887306213 -0.18036489188671112 -0.3507583439350128 0.32940027117729187 -2.8409407138824463 0.8545027375221252 -0.2913816571235657 -0.06684442609548569 -0.04098651930689812 0.04455912485718727 -10.249918937683105 0.630357027053833 0.06537078320980072 0.347321480512619 -0.07601785659790039 -0.015259487554430962 -2.1171507835388184 -1.0186703205108643 0.059910234063863754 0.13581633567810059 -0.41545623540878296 0.27985596656799316 -48.98432922363281 -57.52638244628906 -45.38019943237305 -2.322800636291504 72.93584442138672 2.912703275680542 2.454864740371704 -4.651278972625732 10.739994049072266 0.247909277677536 0.1145862340927124 -0.49951839447021484 11.177218437194824 2.9212887287139893 4.8651442527771 -0.15488766133785248 45.864871978759766 -2.9704596996307373 17.28645133972168 -24.168649673461914 37.84345245361328
